<svg xmlns="http://www.w3.org/2000/svg" width="100" height="100" viewBox="0 0 100 100">
  <g transform="translate(50 50)">
    <g fill="#ffd400">
      <path d="M0,-46 L7,-38 L-7,-38 Z" transform="rotate(0)"/>
      <path d="M0,-46 L7,-38 L-7,-38 Z" transform="rotate(45)"/>
      <path d="M0,-46 L7,-38 L-7,-38 Z" transform="rotate(90)"/>
      <path d="M0,-46 L7,-38 L-7,-38 Z" transform="rotate(135)"/>
      <path d="M0,-46 L7,-38 L-7,-38 Z" transform="rotate(180)"/>
      <path d="M0,-46 L7,-38 L-7,-38 Z" transform="rotate(225)"/>
      <path d="M0,-46 L7,-38 L-7,-38 Z" transform="rotate(270)"/>
      <path d="M0,-46 L7,-38 L-7,-38 Z" transform="rotate(315)"/>
    </g>
    <circle r="38" fill="#ff2e93"/>
    <circle r="30" fill="#00c2ff"/>
    <circle r="30" fill="none" stroke="#fff" stroke-width="3"/>
    <text x="0" y="9" font-family="Arial Black, Arial, sans-serif" font-size="26" font-weight="900" fill="#fff" text-anchor="middle">P</text>
  </g>
</svg>
